<svg xmlns="http://www.w3.org/2000/svg" xmlns:xlink="http://www.w3.org/1999/xlink" width="400" zoomAndPan="magnify" viewBox="0 0 300 300" height="400" preserveAspectRatio="xMidYMid meet" version="1.0"><defs><clipPath id="03f90844e9"><path d="M 111 88.140625 L 211.816406 88.140625 L 211.816406 234.054688 L 111 234.054688 Z M 111 88.140625 " clip-rule="nonzero"/></clipPath></defs><g clip-path="url(#03f90844e9)"><path fill="#f7f719" d="M 161.226562 88.125 C 133.765625 88.125 111.429688 110.507812 111.429688 138.023438 C 111.429688 156.046875 121.03125 171.875 135.378906 180.640625 L 136.847656 217.515625 C 137.011719 221.757812 140.273438 225.289062 144.375 225.949219 C 145.921875 230.585938 152.875 234.085938 161.226562 234.085938 C 169.527344 234.085938 176.445312 230.636719 178.042969 226.046875 C 182.574219 225.816406 186.3125 222.070312 186.460938 217.496094 L 187.730469 180.226562 C 201.699219 171.378906 211.003906 155.765625 211.003906 138.023438 C 211.023438 110.507812 188.683594 88.125 161.226562 88.125 Z M 178.355469 219.328125 C 178.355469 219.363281 178.273438 219.460938 178.191406 219.460938 L 145.199219 219.460938 C 145.117188 219.460938 145 219.347656 145 219.296875 L 145 219.097656 L 178.585938 212.613281 Z M 178.6875 209.378906 L 144.867188 215.898438 L 144.6875 211.242188 L 178.835938 204.65625 Z M 178.949219 201.40625 L 144.570312 208.039062 L 144.390625 203.386719 L 179.097656 196.683594 Z M 187.054688 143.238281 L 172.066406 170.160156 L 171.207031 192.855469 L 179.230469 192.855469 L 179.214844 193.433594 L 144.257812 200.199219 L 143.980469 192.871094 L 151.226562 192.871094 L 150.386719 170.175781 L 135.378906 143.253906 C 134.984375 142.5625 135.148438 141.71875 135.675781 141.175781 C 135.777344 141.058594 135.90625 140.960938 136.023438 140.878906 C 136.039062 140.878906 136.039062 140.863281 136.054688 140.84375 C 136.054688 140.84375 136.074219 140.84375 136.074219 140.84375 C 136.335938 140.679688 136.648438 140.546875 136.996094 140.546875 L 184.996094 140.546875 C 185.175781 140.546875 185.324219 140.597656 185.488281 140.648438 C 185.785156 140.648438 186.082031 140.695312 186.363281 140.84375 C 187.234375 141.289062 187.53125 142.378906 187.054688 143.238281 Z M 187.054688 143.238281 " fill-opacity="1" fill-rule="nonzero"/></g></svg>