<svg xmlns="http://www.w3.org/2000/svg" xmlns:xlink="http://www.w3.org/1999/xlink" width="675" zoomAndPan="magnify" viewBox="0 0 506.25 182.249993" height="243" preserveAspectRatio="xMidYMid meet" version="1.0"><defs><g/></defs><g fill="#ffffff" fill-opacity="1"><g transform="translate(75.973184, 99.526969)"><g><path d="M 8.15625 -18.1875 C 10.0625 -18.1875 11.738281 -17.8125 13.1875 -17.0625 C 14.644531 -16.3125 15.765625 -15.242188 16.546875 -13.859375 C 17.335938 -12.484375 17.734375 -10.882812 17.734375 -9.0625 C 17.734375 -7.238281 17.335938 -5.644531 16.546875 -4.28125 C 15.765625 -2.914062 14.644531 -1.859375 13.1875 -1.109375 C 11.738281 -0.367188 10.0625 0 8.15625 0 L 1.796875 0 L 1.796875 -18.1875 Z M 8.015625 -3.09375 C 9.929688 -3.09375 11.410156 -3.613281 12.453125 -4.65625 C 13.492188 -5.695312 14.015625 -7.164062 14.015625 -9.0625 C 14.015625 -10.957031 13.492188 -12.4375 12.453125 -13.5 C 11.410156 -14.570312 9.929688 -15.109375 8.015625 -15.109375 L 5.4375 -15.109375 L 5.4375 -3.09375 Z M 8.015625 -3.09375 "/></g></g></g><g fill="#ffffff" fill-opacity="1"><g transform="translate(94.648487, 99.526969)"><g><path d="M 11.171875 0 L 7.15625 -7.078125 L 5.4375 -7.078125 L 5.4375 0 L 1.796875 0 L 1.796875 -18.1875 L 8.625 -18.1875 C 10.03125 -18.1875 11.226562 -17.9375 12.21875 -17.4375 C 13.207031 -16.945312 13.945312 -16.28125 14.4375 -15.4375 C 14.9375 -14.59375 15.1875 -13.648438 15.1875 -12.609375 C 15.1875 -11.410156 14.835938 -10.328125 14.140625 -9.359375 C 13.453125 -8.398438 12.421875 -7.738281 11.046875 -7.375 L 15.390625 0 Z M 5.4375 -9.8125 L 8.484375 -9.8125 C 9.472656 -9.8125 10.210938 -10.050781 10.703125 -10.53125 C 11.191406 -11.007812 11.4375 -11.675781 11.4375 -12.53125 C 11.4375 -13.363281 11.191406 -14.007812 10.703125 -14.46875 C 10.210938 -14.925781 9.472656 -15.15625 8.484375 -15.15625 L 5.4375 -15.15625 Z M 5.4375 -9.8125 "/></g></g></g><g fill="#ffffff" fill-opacity="1"><g transform="translate(111.344263, 99.526969)"><g><path d="M 5.4375 -15.234375 L 5.4375 -10.671875 L 11.5625 -10.671875 L 11.5625 -7.78125 L 5.4375 -7.78125 L 5.4375 -2.96875 L 12.34375 -2.96875 L 12.34375 0 L 1.796875 0 L 1.796875 -18.203125 L 12.34375 -18.203125 L 12.34375 -15.234375 Z M 5.4375 -15.234375 "/></g></g></g><g fill="#ffffff" fill-opacity="1"><g transform="translate(125.200969, 99.526969)"><g><path d="M 12.953125 -3.46875 L 5.703125 -3.46875 L 4.5 0 L 0.671875 0 L 7.21875 -18.203125 L 11.453125 -18.203125 L 18 0 L 14.140625 0 Z M 11.953125 -6.375 L 9.328125 -13.984375 L 6.6875 -6.375 Z M 11.953125 -6.375 "/></g></g></g><g fill="#ffffff" fill-opacity="1"><g transform="translate(143.850221, 99.526969)"><g><path d="M 21.625 -18.1875 L 21.625 0 L 17.96875 0 L 17.96875 -11.828125 L 13.109375 0 L 10.34375 0 L 5.4375 -11.828125 L 5.4375 0 L 1.796875 0 L 1.796875 -18.1875 L 5.9375 -18.1875 L 11.71875 -4.65625 L 17.5 -18.1875 Z M 21.625 -18.1875 "/></g></g></g><g fill="#ffffff" fill-opacity="1"><g transform="translate(167.259914, 99.526969)"><g/></g></g><path fill="#ffffff" d="M 186.390625 90.0625 C 186.390625 90.363281 186.359375 90.660156 186.300781 90.957031 C 186.242188 91.25 186.15625 91.539062 186.042969 91.816406 C 185.925781 92.09375 185.785156 92.355469 185.617188 92.605469 C 185.453125 92.855469 185.261719 93.089844 185.050781 93.300781 C 184.835938 93.511719 184.605469 93.703125 184.355469 93.871094 C 184.105469 94.039062 183.839844 94.179688 183.5625 94.292969 C 183.285156 94.410156 183 94.496094 182.703125 94.554688 C 182.410156 94.613281 182.113281 94.640625 181.8125 94.640625 C 181.511719 94.640625 181.210938 94.613281 180.917969 94.554688 C 180.621094 94.496094 180.335938 94.410156 180.058594 94.292969 C 179.78125 94.179688 179.515625 94.039062 179.265625 93.871094 C 179.015625 93.703125 178.785156 93.511719 178.574219 93.300781 C 178.359375 93.089844 178.171875 92.855469 178.003906 92.605469 C 177.835938 92.355469 177.695312 92.09375 177.578125 91.816406 C 177.464844 91.539062 177.378906 91.25 177.320312 90.957031 C 177.261719 90.660156 177.230469 90.363281 177.230469 90.0625 C 177.230469 89.761719 177.261719 89.464844 177.320312 89.167969 C 177.378906 88.875 177.464844 88.585938 177.578125 88.308594 C 177.695312 88.03125 177.835938 87.769531 178.003906 87.519531 C 178.171875 87.269531 178.359375 87.035156 178.574219 86.824219 C 178.785156 86.613281 179.015625 86.421875 179.265625 86.253906 C 179.515625 86.085938 179.78125 85.945312 180.058594 85.832031 C 180.335938 85.714844 180.621094 85.628906 180.917969 85.570312 C 181.210938 85.511719 181.511719 85.484375 181.8125 85.484375 C 182.113281 85.484375 182.410156 85.511719 182.703125 85.570312 C 183 85.628906 183.285156 85.714844 183.5625 85.832031 C 183.839844 85.945312 184.105469 86.085938 184.355469 86.253906 C 184.605469 86.421875 184.835938 86.613281 185.050781 86.824219 C 185.261719 87.035156 185.453125 87.269531 185.617188 87.519531 C 185.785156 87.769531 185.925781 88.03125 186.042969 88.308594 C 186.15625 88.585938 186.242188 88.875 186.300781 89.167969 C 186.359375 89.464844 186.390625 89.761719 186.390625 90.0625 Z M 186.390625 90.0625 " fill-opacity="1" fill-rule="nonzero"/><g fill="#ffffff" fill-opacity="1"><g transform="translate(199.556833, 99.526969)"><g><path d="M 8.15625 -18.1875 C 10.0625 -18.1875 11.738281 -17.8125 13.1875 -17.0625 C 14.644531 -16.3125 15.765625 -15.242188 16.546875 -13.859375 C 17.335938 -12.484375 17.734375 -10.882812 17.734375 -9.0625 C 17.734375 -7.238281 17.335938 -5.644531 16.546875 -4.28125 C 15.765625 -2.914062 14.644531 -1.859375 13.1875 -1.109375 C 11.738281 -0.367188 10.0625 0 8.15625 0 L 1.796875 0 L 1.796875 -18.1875 Z M 8.015625 -3.09375 C 9.929688 -3.09375 11.410156 -3.613281 12.453125 -4.65625 C 13.492188 -5.695312 14.015625 -7.164062 14.015625 -9.0625 C 14.015625 -10.957031 13.492188 -12.4375 12.453125 -13.5 C 11.410156 -14.570312 9.929688 -15.109375 8.015625 -15.109375 L 5.4375 -15.109375 L 5.4375 -3.09375 Z M 8.015625 -3.09375 "/></g></g></g><g fill="#ffffff" fill-opacity="1"><g transform="translate(218.232136, 99.526969)"><g><path d="M 5.4375 -15.234375 L 5.4375 -10.671875 L 11.5625 -10.671875 L 11.5625 -7.78125 L 5.4375 -7.78125 L 5.4375 -2.96875 L 12.34375 -2.96875 L 12.34375 0 L 1.796875 0 L 1.796875 -18.203125 L 12.34375 -18.203125 L 12.34375 -15.234375 Z M 5.4375 -15.234375 "/></g></g></g><g fill="#ffffff" fill-opacity="1"><g transform="translate(232.088842, 99.526969)"><g><path d="M 8.078125 0.1875 C 6.804688 0.1875 5.660156 -0.03125 4.640625 -0.46875 C 3.628906 -0.90625 2.828125 -1.53125 2.234375 -2.34375 C 1.648438 -3.15625 1.347656 -4.117188 1.328125 -5.234375 L 5.234375 -5.234375 C 5.285156 -4.484375 5.550781 -3.890625 6.03125 -3.453125 C 6.507812 -3.023438 7.164062 -2.8125 8 -2.8125 C 8.84375 -2.8125 9.507812 -3.015625 10 -3.421875 C 10.488281 -3.828125 10.734375 -4.363281 10.734375 -5.03125 C 10.734375 -5.5625 10.566406 -6 10.234375 -6.34375 C 9.898438 -6.695312 9.484375 -6.972656 8.984375 -7.171875 C 8.492188 -7.367188 7.816406 -7.59375 6.953125 -7.84375 C 5.773438 -8.1875 4.816406 -8.523438 4.078125 -8.859375 C 3.335938 -9.203125 2.703125 -9.71875 2.171875 -10.40625 C 1.640625 -11.09375 1.375 -12.007812 1.375 -13.15625 C 1.375 -14.226562 1.644531 -15.164062 2.1875 -15.96875 C 2.726562 -16.769531 3.484375 -17.378906 4.453125 -17.796875 C 5.421875 -18.222656 6.53125 -18.4375 7.78125 -18.4375 C 9.65625 -18.4375 11.179688 -17.976562 12.359375 -17.0625 C 13.535156 -16.15625 14.179688 -14.890625 14.296875 -13.265625 L 10.28125 -13.265625 C 10.25 -13.890625 9.984375 -14.40625 9.484375 -14.8125 C 8.992188 -15.21875 8.34375 -15.421875 7.53125 -15.421875 C 6.8125 -15.421875 6.238281 -15.238281 5.8125 -14.875 C 5.394531 -14.507812 5.1875 -13.976562 5.1875 -13.28125 C 5.1875 -12.789062 5.34375 -12.382812 5.65625 -12.0625 C 5.976562 -11.75 6.378906 -11.488281 6.859375 -11.28125 C 7.335938 -11.082031 8.007812 -10.851562 8.875 -10.59375 C 10.0625 -10.25 11.023438 -9.898438 11.765625 -9.546875 C 12.515625 -9.203125 13.160156 -8.679688 13.703125 -7.984375 C 14.242188 -7.296875 14.515625 -6.390625 14.515625 -5.265625 C 14.515625 -4.285156 14.257812 -3.378906 13.75 -2.546875 C 13.25 -1.710938 12.507812 -1.046875 11.53125 -0.546875 C 10.5625 -0.0546875 9.410156 0.1875 8.078125 0.1875 Z M 8.078125 0.1875 "/></g></g></g><g fill="#ffffff" fill-opacity="1"><g transform="translate(247.951126, 99.526969)"><g><path d="M 5.4375 -18.1875 L 5.4375 0 L 1.796875 0 L 1.796875 -18.1875 Z M 5.4375 -18.1875 "/></g></g></g><g fill="#ffffff" fill-opacity="1"><g transform="translate(255.192035, 99.526969)"><g><path d="M 14.453125 -12.703125 C 14.035156 -13.472656 13.460938 -14.054688 12.734375 -14.453125 C 12.003906 -14.859375 11.15625 -15.0625 10.1875 -15.0625 C 9.101562 -15.0625 8.144531 -14.816406 7.3125 -14.328125 C 6.476562 -13.835938 5.828125 -13.140625 5.359375 -12.234375 C 4.890625 -11.335938 4.65625 -10.296875 4.65625 -9.109375 C 4.65625 -7.898438 4.894531 -6.84375 5.375 -5.9375 C 5.851562 -5.03125 6.515625 -4.332031 7.359375 -3.84375 C 8.210938 -3.363281 9.207031 -3.125 10.34375 -3.125 C 11.726562 -3.125 12.863281 -3.492188 13.75 -4.234375 C 14.632812 -4.972656 15.21875 -6 15.5 -7.3125 L 9.25 -7.3125 L 9.25 -10.109375 L 19.09375 -10.109375 L 19.09375 -6.921875 C 18.851562 -5.660156 18.332031 -4.488281 17.53125 -3.40625 C 16.726562 -2.332031 15.695312 -1.46875 14.4375 -0.8125 C 13.175781 -0.164062 11.765625 0.15625 10.203125 0.15625 C 8.453125 0.15625 6.867188 -0.238281 5.453125 -1.03125 C 4.035156 -1.820312 2.921875 -2.921875 2.109375 -4.328125 C 1.304688 -5.734375 0.90625 -7.328125 0.90625 -9.109375 C 0.90625 -10.898438 1.304688 -12.503906 2.109375 -13.921875 C 2.921875 -15.335938 4.035156 -16.441406 5.453125 -17.234375 C 6.867188 -18.023438 8.445312 -18.421875 10.1875 -18.421875 C 12.238281 -18.421875 14.019531 -17.921875 15.53125 -16.921875 C 17.039062 -15.921875 18.082031 -14.515625 18.65625 -12.703125 Z M 14.453125 -12.703125 "/></g></g></g><g fill="#ffffff" fill-opacity="1"><g transform="translate(275.195705, 99.526969)"><g><path d="M 17.34375 0 L 13.703125 0 L 5.4375 -12.46875 L 5.4375 0 L 1.796875 0 L 1.796875 -18.203125 L 5.4375 -18.203125 L 13.703125 -5.703125 L 13.703125 -18.203125 L 17.34375 -18.203125 Z M 17.34375 0 "/></g></g></g><g fill="#ffffff" fill-opacity="1"><g transform="translate(294.335509, 99.526969)"><g/></g></g><path fill="#ffffff" d="M 315.914062 90.0625 C 315.914062 90.363281 315.886719 90.660156 315.828125 90.957031 C 315.765625 91.25 315.679688 91.539062 315.566406 91.816406 C 315.449219 92.09375 315.308594 92.355469 315.140625 92.605469 C 314.976562 92.855469 314.785156 93.089844 314.574219 93.300781 C 314.359375 93.511719 314.128906 93.703125 313.878906 93.871094 C 313.628906 94.039062 313.363281 94.179688 313.085938 94.292969 C 312.808594 94.410156 312.523438 94.496094 312.226562 94.554688 C 311.933594 94.613281 311.636719 94.640625 311.335938 94.640625 C 311.035156 94.640625 310.734375 94.613281 310.441406 94.554688 C 310.144531 94.496094 309.859375 94.410156 309.582031 94.292969 C 309.304688 94.179688 309.039062 94.039062 308.789062 93.871094 C 308.539062 93.703125 308.308594 93.511719 308.097656 93.300781 C 307.882812 93.089844 307.695312 92.855469 307.527344 92.605469 C 307.359375 92.355469 307.21875 92.09375 307.105469 91.816406 C 306.988281 91.539062 306.902344 91.25 306.84375 90.957031 C 306.785156 90.660156 306.753906 90.363281 306.753906 90.0625 C 306.753906 89.761719 306.785156 89.464844 306.84375 89.167969 C 306.902344 88.875 306.988281 88.585938 307.105469 88.308594 C 307.21875 88.03125 307.359375 87.769531 307.527344 87.519531 C 307.695312 87.269531 307.882812 87.035156 308.097656 86.824219 C 308.308594 86.613281 308.539062 86.421875 308.789062 86.253906 C 309.039062 86.085938 309.304688 85.945312 309.582031 85.832031 C 309.859375 85.714844 310.144531 85.628906 310.441406 85.570312 C 310.734375 85.511719 311.035156 85.484375 311.335938 85.484375 C 311.636719 85.484375 311.933594 85.511719 312.226562 85.570312 C 312.523438 85.628906 312.808594 85.714844 313.085938 85.832031 C 313.363281 85.945312 313.628906 86.085938 313.878906 86.253906 C 314.128906 86.421875 314.359375 86.613281 314.574219 86.824219 C 314.785156 87.035156 314.976562 87.269531 315.140625 87.519531 C 315.308594 87.769531 315.449219 88.03125 315.566406 88.308594 C 315.679688 88.585938 315.765625 88.875 315.828125 89.167969 C 315.886719 89.464844 315.914062 89.761719 315.914062 90.0625 Z M 315.914062 90.0625 " fill-opacity="1" fill-rule="nonzero"/><g fill="#ffffff" fill-opacity="1"><g transform="translate(329.07103, 99.526969)"><g><path d="M 8.15625 -18.1875 C 10.0625 -18.1875 11.738281 -17.8125 13.1875 -17.0625 C 14.644531 -16.3125 15.765625 -15.242188 16.546875 -13.859375 C 17.335938 -12.484375 17.734375 -10.882812 17.734375 -9.0625 C 17.734375 -7.238281 17.335938 -5.644531 16.546875 -4.28125 C 15.765625 -2.914062 14.644531 -1.859375 13.1875 -1.109375 C 11.738281 -0.367188 10.0625 0 8.15625 0 L 1.796875 0 L 1.796875 -18.1875 Z M 8.015625 -3.09375 C 9.929688 -3.09375 11.410156 -3.613281 12.453125 -4.65625 C 13.492188 -5.695312 14.015625 -7.164062 14.015625 -9.0625 C 14.015625 -10.957031 13.492188 -12.4375 12.453125 -13.5 C 11.410156 -14.570312 9.929688 -15.109375 8.015625 -15.109375 L 5.4375 -15.109375 L 5.4375 -3.09375 Z M 8.015625 -3.09375 "/></g></g></g><g fill="#ffffff" fill-opacity="1"><g transform="translate(347.746333, 99.526969)"><g><path d="M 5.4375 -15.234375 L 5.4375 -10.671875 L 11.5625 -10.671875 L 11.5625 -7.78125 L 5.4375 -7.78125 L 5.4375 -2.96875 L 12.34375 -2.96875 L 12.34375 0 L 1.796875 0 L 1.796875 -18.203125 L 12.34375 -18.203125 L 12.34375 -15.234375 Z M 5.4375 -15.234375 "/></g></g></g><g fill="#ffffff" fill-opacity="1"><g transform="translate(361.603039, 99.526969)"><g><path d="M 5.4375 -2.890625 L 11.4375 -2.890625 L 11.4375 0 L 1.796875 0 L 1.796875 -18.1875 L 5.4375 -18.1875 Z M 5.4375 -2.890625 "/></g></g></g><g fill="#ffffff" fill-opacity="1"><g transform="translate(373.55836, 99.526969)"><g><path d="M 5.4375 -18.1875 L 5.4375 0 L 1.796875 0 L 1.796875 -18.1875 Z M 5.4375 -18.1875 "/></g></g></g><g fill="#ffffff" fill-opacity="1"><g transform="translate(380.799269, 99.526969)"><g><path d="M 18.125 -18.1875 L 11.453125 0 L 7.03125 0 L 0.359375 -18.1875 L 4.265625 -18.1875 L 9.265625 -3.71875 L 14.25 -18.1875 Z M 18.125 -18.1875 "/></g></g></g><g fill="#ffffff" fill-opacity="1"><g transform="translate(399.318294, 99.526969)"><g><path d="M 5.4375 -15.234375 L 5.4375 -10.671875 L 11.5625 -10.671875 L 11.5625 -7.78125 L 5.4375 -7.78125 L 5.4375 -2.96875 L 12.34375 -2.96875 L 12.34375 0 L 1.796875 0 L 1.796875 -18.203125 L 12.34375 -18.203125 L 12.34375 -15.234375 Z M 5.4375 -15.234375 "/></g></g></g><g fill="#ffffff" fill-opacity="1"><g transform="translate(413.175, 99.526969)"><g><path d="M 11.171875 0 L 7.15625 -7.078125 L 5.4375 -7.078125 L 5.4375 0 L 1.796875 0 L 1.796875 -18.1875 L 8.625 -18.1875 C 10.03125 -18.1875 11.226562 -17.9375 12.21875 -17.4375 C 13.207031 -16.945312 13.945312 -16.28125 14.4375 -15.4375 C 14.9375 -14.59375 15.1875 -13.648438 15.1875 -12.609375 C 15.1875 -11.410156 14.835938 -10.328125 14.140625 -9.359375 C 13.453125 -8.398438 12.421875 -7.738281 11.046875 -7.375 L 15.390625 0 Z M 5.4375 -9.8125 L 8.484375 -9.8125 C 9.472656 -9.8125 10.210938 -10.050781 10.703125 -10.53125 C 11.191406 -11.007812 11.4375 -11.675781 11.4375 -12.53125 C 11.4375 -13.363281 11.191406 -14.007812 10.703125 -14.46875 C 10.210938 -14.925781 9.472656 -15.15625 8.484375 -15.15625 L 5.4375 -15.15625 Z M 5.4375 -9.8125 "/></g></g></g></svg>