<?xml version="1.0" encoding="utf-8"?>
<!-- Generator: Adobe Illustrator 24.3.0, SVG Export Plug-In . SVG Version: 6.00 Build 0)  -->
<svg version="1.1" id="Layer_1" xmlns="http://www.w3.org/2000/svg" xmlns:xlink="http://www.w3.org/1999/xlink" x="0px" y="0px"
	 viewBox="0 0 521.7 653.61" style="enable-background:new 0 0 521.7 653.61;" xml:space="preserve">
<style type="text/css">
	.st0{fill:#EE180C;}
	.st1{fill:#F0180B;}
	.st2{fill:#121211;}
	.st3{fill:#F5F21F;}
	.st4{fill:#102E3D;}
	.st5{fill:#EC180D;}
	.st6{fill:#166991;}
	.st7{fill:#F5F021;}
	.st8{fill:#112F3D;}
	.st9{fill:#F5EE21;}
	.st10{fill:#F5EF21;}
	.st11{fill:#FFFFFF;}
</style>
<g>
	<g>
		<rect x="200.05" y="600.35" class="st10" width="148.59" height="19.26"/>
		<path class="st10" d="M299.34,619.61c0,13.81-11.19,25-25,25c-13.81,0-25-11.19-25-25"/>
	</g>
	<rect x="174.13" y="533.11" class="st10" width="204.43" height="19.26"/>
	<rect x="174.13" y="567.32" class="st10" width="204.43" height="19.26"/>
	<g>
		<g>
			<g>
				<path class="st10" d="M377.78,339.34c56.76-45.88,65.53-129.16,19.63-185.87c-29.85-36.91-75.54-53.55-119.46-48.05v32.38
					c34.44-5.84,70.97,6.59,94.5,35.7c34.94,43.07,28.17,106.15-14.85,140.89c-23.21,18.77-52.31,25.5-79.65,20.91v32.37
					C312.46,372.06,348.63,362.92,377.78,339.34z"/>
				<path class="st10" d="M336.01,456.15c17.22-3.27,33.75-8.49,49.36-15.43l-4.87-44.61l36.28-25.72l40.46,19.32
					c11.82-12.55,22.22-26.42,30.87-41.43l-30.19-33.16l14.19-42.18l44.15-8.14c1.06-8.63,1.71-17.38,1.76-26.21
					c0.11-8.59-0.37-17.1-1.28-25.45l-43.88-9.12l-13.27-42.41l30.81-32.55c-8.32-15.22-18.39-29.32-29.9-42.11l-40.87,18.48
					l-35.71-26.46l5.79-44.51c-14.97-7.04-30.88-12.53-47.48-16.1l-22.43,38.9l-41.85-0.72v34.43
					c48.13-5.42,97.95,13.07,130.63,53.49c50.88,62.87,41.16,155.19-21.76,206.06c-31.81,25.74-71.16,35.95-108.86,31.62v34.02
					l36.74,0.48L336.01,456.15z"/>
			</g>
		</g>
	</g>
	<g>
		<g>
			<g>
				<path class="st10" d="M324.26,490.71c-12.09-13.77-29.3-20.41-46.31-19.59v14.02c13.09-0.86,26.43,4.15,35.75,14.77
					c8.44,9.58,11.92,21.78,10.69,33.51h14.06C339.64,518.4,334.99,502.92,324.26,490.71z"/>
				<path class="st10" d="M378.5,525.78c-0.11-3.76-0.47-7.47-1.01-11.1l-19.35-3.21l-6.56-18.3l12.89-14.78
					c-3.91-6.51-8.56-12.49-13.82-17.88l-17.54,8.81l-16.08-10.93l1.74-19.56c-6.67-2.81-13.72-4.93-21.04-6.2l-9.11,17.41
					l-10.67,0.25v14.55c18.75-0.81,37.69,6.55,51.03,21.74c11.78,13.4,16.95,30.35,15.78,46.86h33.68
					C378.56,530.89,378.59,528.34,378.5,525.78z"/>
			</g>
		</g>
	</g>
	<g>
		<g>
			<g>
				<path class="st10" d="M119.5,52.96C62.78,96.87,58.07,154.02,58.05,154.31c-2.1,25.84,3.53,52.61-3.15,78.01
					c-7.4,28.14-34.13,42.36-49.13,65.53c0,0-10.09,15.59,8.25,24.76s28.43,6.42,17.89,25.22c0,0-16.97,17.43-4.13,21.55
					c0,0,5.04,4.13-2.75,9.17c-7.28,4.71,5.64,11.45,8.15,14.21c8.97,9.88,7.72,25.73,0.56,36.24
					c-15.77,23.14,14.54,32.68,32.24,35.76c29.26,5.08,57.02,1.55,80.86,23.4c8.94,8.19,16.14,18.19,21.67,28.95
					c0.67,1.3,3.36,8.73,5.98,16.3h84.89V12.6C259.37,12.6,176.37,8.93,119.5,52.96z"/>
			</g>
		</g>
	</g>
</g>
</svg>
