<svg xmlns="http://www.w3.org/2000/svg" xmlns:xlink="http://www.w3.org/1999/xlink" width="400" zoomAndPan="magnify" viewBox="0 0 300 300" height="400" preserveAspectRatio="xMidYMid meet" version="1.0"><defs><clipPath id="ace5ba9cdb"><path d="M 154 175 L 214 175 L 214 235.105469 L 154 235.105469 Z M 154 175 " clip-rule="nonzero"/></clipPath><clipPath id="9f08e76926"><path d="M 141 89.191406 L 227 89.191406 L 227 176 L 141 176 Z M 141 89.191406 " clip-rule="nonzero"/></clipPath><clipPath id="0fb4c79b65"><path d="M 96.054688 146 L 162 146 L 162 211 L 96.054688 211 Z M 96.054688 146 " clip-rule="nonzero"/></clipPath><clipPath id="658e23cd8d"><path d="M 96.054688 145 L 162 145 L 162 212 L 96.054688 212 Z M 96.054688 145 " clip-rule="nonzero"/></clipPath></defs><path fill="#f7f719" d="M 210.289062 214.691406 L 205.375 211.832031 C 206.136719 209.40625 206.457031 206.917969 206.375 204.453125 L 211.875 203.007812 C 212.789062 202.765625 213.339844 201.824219 213.097656 200.914062 L 211.414062 194.539062 C 211.171875 193.628906 210.230469 193.082031 209.320312 193.320312 L 203.816406 194.769531 C 202.667969 192.589844 201.15625 190.585938 199.304688 188.851562 L 202.167969 183.941406 C 202.640625 183.125 202.363281 182.070312 201.546875 181.597656 L 195.84375 178.28125 C 195.03125 177.808594 193.972656 178.085938 193.5 178.898438 L 190.632812 183.808594 C 188.210938 183.054688 185.714844 182.730469 183.25 182.808594 L 181.800781 177.316406 C 181.558594 176.402344 180.613281 175.855469 179.699219 176.09375 L 173.320312 177.777344 C 172.410156 178.019531 171.859375 178.960938 172.101562 179.871094 L 173.550781 185.367188 C 171.367188 186.507812 169.359375 188.019531 167.625 189.875 L 162.707031 187.015625 C 161.890625 186.539062 160.835938 186.816406 160.359375 187.632812 L 157.039062 193.328125 C 156.5625 194.140625 156.839844 195.195312 157.65625 195.671875 L 162.574219 198.53125 C 161.816406 200.953125 161.492188 203.441406 161.574219 205.902344 L 156.070312 207.355469 C 155.164062 207.59375 154.609375 208.535156 154.851562 209.449219 L 156.535156 215.816406 C 156.773438 216.730469 157.71875 217.277344 158.632812 217.039062 L 164.136719 215.585938 C 165.28125 217.765625 166.792969 219.777344 168.648438 221.507812 L 165.785156 226.421875 C 165.308594 227.230469 165.589844 228.289062 166.402344 228.761719 L 172.105469 232.078125 C 172.921875 232.550781 173.980469 232.273438 174.453125 231.460938 L 177.316406 226.550781 C 179.742188 227.308594 182.234375 227.628906 184.703125 227.546875 L 186.152344 233.042969 C 186.394531 233.957031 187.335938 234.503906 188.246094 234.261719 L 194.628906 232.582031 C 195.542969 232.339844 196.09375 231.398438 195.847656 230.488281 L 194.394531 224.992188 C 196.582031 223.851562 198.59375 222.339844 200.328125 220.488281 L 205.242188 223.34375 C 206.0625 223.820312 207.117188 223.542969 207.59375 222.730469 L 210.914062 217.03125 C 211.390625 216.21875 211.109375 215.164062 210.289062 214.691406 Z M 178.390625 214.753906 C 173.097656 211.675781 171.304688 204.890625 174.386719 199.605469 C 177.46875 194.316406 184.265625 192.527344 189.558594 195.605469 C 194.855469 198.6875 196.644531 205.46875 193.5625 210.757812 C 190.480469 216.042969 183.6875 217.835938 178.390625 214.753906 " fill-opacity="1" fill-rule="nonzero"/><g clip-path="url(#ace5ba9cdb)"><path fill="#f7f719" d="M 178.789062 214.074219 C 183.699219 216.929688 190.019531 215.265625 192.882812 210.359375 C 194.265625 207.984375 194.644531 205.210938 193.941406 202.554688 C 193.238281 199.894531 191.539062 197.671875 189.164062 196.285156 C 186.785156 194.902344 184.007812 194.527344 181.34375 195.230469 C 178.683594 195.929688 176.453125 197.625 175.070312 200 C 173.683594 202.375 173.308594 205.148438 174.007812 207.808594 C 174.710938 210.464844 176.410156 212.691406 178.789062 214.074219 Z M 183.957031 217.046875 C 181.925781 217.046875 179.871094 216.527344 177.996094 215.4375 C 175.253906 213.839844 173.296875 211.273438 172.484375 208.207031 C 171.675781 205.144531 172.109375 201.949219 173.707031 199.207031 C 175.304688 196.46875 177.875 194.515625 180.941406 193.707031 C 184.011719 192.898438 187.214844 193.332031 189.957031 194.925781 C 192.699219 196.519531 194.65625 199.085938 195.464844 202.152344 C 196.277344 205.21875 195.839844 208.414062 194.242188 211.152344 C 192.039062 214.933594 188.050781 217.046875 183.957031 217.046875 Z M 185.304688 226.738281 L 186.914062 232.84375 C 186.976562 233.082031 187.128906 233.28125 187.347656 233.40625 C 187.558594 233.53125 187.808594 233.5625 188.046875 233.5 L 194.425781 231.820312 C 194.664062 231.757812 194.867188 231.605469 194.992188 231.386719 C 195.117188 231.175781 195.148438 230.929688 195.085938 230.695312 L 193.472656 224.582031 L 194.03125 224.292969 C 196.171875 223.175781 198.097656 221.714844 199.753906 219.949219 L 200.179688 219.492188 L 205.640625 222.664062 C 205.855469 222.789062 206.105469 222.824219 206.34375 222.761719 C 206.585938 222.695312 206.785156 222.542969 206.910156 222.332031 L 210.234375 216.636719 C 210.488281 216.195312 210.335938 215.628906 209.894531 215.371094 L 204.4375 212.195312 L 204.625 211.597656 C 205.34375 209.289062 205.667969 206.898438 205.585938 204.480469 L 205.566406 203.851562 L 211.675781 202.246094 C 211.914062 202.183594 212.117188 202.027344 212.242188 201.8125 C 212.367188 201.597656 212.398438 201.351562 212.335938 201.113281 L 210.652344 194.742188 C 210.523438 194.25 210.015625 193.953125 209.519531 194.082031 L 203.410156 195.691406 L 203.117188 195.136719 C 201.992188 192.996094 200.527344 191.074219 198.765625 189.425781 L 198.304688 188.996094 L 201.488281 183.542969 C 201.742188 183.101562 201.59375 182.535156 201.152344 182.277344 L 195.449219 178.960938 C 195.011719 178.707031 194.433594 178.859375 194.179688 179.292969 L 191 184.75 L 190.398438 184.5625 C 188.09375 183.839844 185.695312 183.515625 183.273438 183.597656 L 182.648438 183.617188 L 181.039062 177.515625 C 180.90625 177.023438 180.398438 176.726562 179.902344 176.855469 L 173.523438 178.539062 C 173.285156 178.601562 173.085938 178.753906 172.960938 178.96875 C 172.835938 179.183594 172.800781 179.433594 172.863281 179.671875 L 174.476562 185.773438 L 173.917969 186.0625 C 171.773438 187.1875 169.847656 188.648438 168.199219 190.414062 L 167.769531 190.871094 L 162.308594 187.695312 C 162.09375 187.570312 161.84375 187.535156 161.605469 187.601562 C 161.363281 187.664062 161.164062 187.816406 161.042969 188.027344 L 157.71875 193.722656 C 157.59375 193.933594 157.5625 194.183594 157.625 194.425781 C 157.6875 194.664062 157.839844 194.867188 158.054688 194.988281 L 163.515625 198.164062 L 163.328125 198.765625 C 162.605469 201.070312 162.28125 203.464844 162.363281 205.875 L 162.382812 206.503906 L 156.273438 208.117188 C 156.035156 208.179688 155.835938 208.332031 155.710938 208.546875 C 155.585938 208.761719 155.550781 209.011719 155.613281 209.25 L 157.296875 215.617188 C 157.359375 215.855469 157.511719 216.054688 157.726562 216.179688 C 157.941406 216.304688 158.191406 216.339844 158.429688 216.277344 L 164.542969 214.664062 L 164.832031 215.21875 C 165.960938 217.367188 167.425781 219.289062 169.1875 220.933594 L 169.644531 221.363281 L 166.464844 226.816406 C 166.339844 227.027344 166.308594 227.273438 166.375 227.515625 C 166.4375 227.757812 166.589844 227.957031 166.800781 228.082031 L 172.503906 231.398438 C 172.945312 231.65625 173.515625 231.507812 173.769531 231.066406 L 176.953125 225.609375 L 177.550781 225.796875 C 179.851562 226.515625 182.25 226.84375 184.675781 226.757812 Z M 187.808594 235.109375 C 187.371094 235.109375 186.941406 234.992188 186.554688 234.765625 C 185.972656 234.429688 185.558594 233.890625 185.390625 233.242188 L 184.097656 228.34375 C 181.90625 228.355469 179.765625 228.070312 177.6875 227.480469 L 175.132812 231.859375 C 174.4375 233.046875 172.902344 233.453125 171.710938 232.757812 L 166.007812 229.441406 C 165.433594 229.109375 165.019531 228.566406 164.851562 227.917969 C 164.675781 227.269531 164.765625 226.597656 165.101562 226.023438 L 167.65625 221.648438 C 166.113281 220.128906 164.800781 218.402344 163.738281 216.503906 L 158.835938 217.800781 C 158.1875 217.96875 157.515625 217.878906 156.933594 217.539062 C 156.355469 217.203125 155.941406 216.664062 155.769531 216.015625 L 154.089844 209.648438 C 153.917969 209.003906 154.011719 208.332031 154.351562 207.753906 C 154.6875 207.175781 155.226562 206.761719 155.871094 206.59375 L 160.773438 205.300781 C 160.761719 203.132812 161.050781 200.984375 161.640625 198.898438 L 157.261719 196.351562 C 156.683594 196.015625 156.269531 195.472656 156.101562 194.828125 C 155.929688 194.179688 156.019531 193.507812 156.355469 192.929688 L 159.679688 187.234375 C 160.015625 186.660156 160.554688 186.25 161.203125 186.078125 C 161.851562 185.90625 162.527344 186 163.101562 186.332031 L 167.484375 188.882812 C 169.007812 187.339844 170.734375 186.027344 172.632812 184.96875 L 171.339844 180.074219 C 171.167969 179.429688 171.261719 178.757812 171.597656 178.175781 C 171.933594 177.597656 172.476562 177.1875 173.121094 177.015625 L 179.5 175.332031 C 180.832031 174.984375 182.207031 175.78125 182.5625 177.113281 L 183.855469 182.011719 C 186.027344 181.996094 188.175781 182.289062 190.265625 182.878906 L 192.816406 178.503906 C 193.511719 177.3125 195.046875 176.90625 196.242188 177.601562 L 201.945312 180.917969 C 203.136719 181.609375 203.542969 183.144531 202.847656 184.335938 L 200.296875 188.714844 C 201.839844 190.234375 203.152344 191.960938 204.214844 193.851562 L 209.117188 192.558594 C 210.453125 192.210938 211.824219 193.007812 212.175781 194.339844 L 213.859375 200.710938 C 214.03125 201.351562 213.941406 202.027344 213.605469 202.605469 C 213.265625 203.183594 212.726562 203.597656 212.078125 203.765625 L 207.175781 205.058594 C 207.191406 207.226562 206.898438 209.375 206.308594 211.460938 L 210.6875 214.011719 C 211.882812 214.703125 212.289062 216.238281 211.59375 217.429688 L 208.273438 223.125 C 207.9375 223.699219 207.394531 224.113281 206.746094 224.28125 C 206.097656 224.453125 205.425781 224.363281 204.847656 224.027344 L 200.46875 221.476562 C 198.941406 223.023438 197.210938 224.335938 195.316406 225.390625 L 196.609375 230.289062 C 196.78125 230.929688 196.691406 231.601562 196.355469 232.175781 C 196.019531 232.757812 195.476562 233.171875 194.828125 233.34375 L 188.449219 235.023438 C 188.238281 235.078125 188.023438 235.109375 187.808594 235.109375 " fill-opacity="1" fill-rule="nonzero"/></g><path fill="#f7f719" d="M 221.988281 146.152344 L 214.890625 142.023438 C 215.984375 138.523438 216.453125 134.925781 216.332031 131.367188 L 224.28125 129.273438 C 225.601562 128.925781 226.398438 127.566406 226.046875 126.25 L 223.613281 117.042969 C 223.265625 115.730469 221.90625 114.9375 220.585938 115.28125 L 212.636719 117.378906 C 210.980469 114.226562 208.796875 111.332031 206.117188 108.828125 L 210.253906 101.734375 C 210.941406 100.558594 210.535156 99.03125 209.359375 98.347656 L 201.121094 93.558594 C 199.945312 92.875 198.417969 93.273438 197.734375 94.449219 L 193.59375 101.542969 C 190.089844 100.453125 186.488281 99.984375 182.925781 100.101562 L 180.832031 92.164062 C 180.480469 90.847656 179.117188 90.054688 177.800781 90.398438 L 168.585938 92.832031 C 167.265625 93.175781 166.472656 94.539062 166.820312 95.855469 L 168.917969 103.792969 C 165.761719 105.441406 162.859375 107.625 160.351562 110.304688 L 153.25 106.171875 C 152.070312 105.488281 150.546875 105.890625 149.863281 107.0625 L 145.0625 115.292969 C 144.375 116.46875 144.777344 117.988281 145.957031 118.675781 L 153.058594 122.808594 C 151.96875 126.308594 151.496094 129.90625 151.617188 133.460938 L 143.667969 135.558594 C 142.351562 135.902344 141.554688 137.261719 141.902344 138.582031 L 144.332031 147.78125 C 144.679688 149.097656 146.046875 149.894531 147.367188 149.542969 L 155.3125 147.445312 C 156.972656 150.601562 159.152344 153.5 161.835938 156 L 157.695312 163.097656 C 157.011719 164.269531 157.417969 165.796875 158.59375 166.480469 L 166.832031 171.273438 C 168.007812 171.957031 169.535156 171.554688 170.21875 170.382812 L 174.355469 163.285156 C 177.859375 164.378906 181.460938 164.84375 185.023438 164.722656 L 187.121094 172.667969 C 187.46875 173.984375 188.828125 174.777344 190.148438 174.425781 L 199.363281 172 C 200.683594 171.652344 201.480469 170.289062 201.128906 168.976562 L 199.027344 161.035156 C 202.1875 159.386719 205.089844 157.199219 207.597656 154.527344 L 214.699219 158.65625 C 215.878906 159.34375 217.40625 158.941406 218.09375 157.765625 L 222.890625 149.539062 C 223.578125 148.359375 223.171875 146.839844 221.988281 146.152344 Z M 175.910156 146.246094 C 168.261719 141.800781 165.671875 132 170.125 124.359375 C 174.578125 116.722656 184.394531 114.136719 192.042969 118.585938 C 199.691406 123.03125 202.28125 132.832031 197.824219 140.472656 C 193.371094 148.109375 183.558594 150.695312 175.910156 146.246094 " fill-opacity="1" fill-rule="nonzero"/><g clip-path="url(#9f08e76926)"><path fill="#f7f719" d="M 184 117.199219 C 178.75 117.199219 173.632812 119.910156 170.804688 124.757812 C 168.757812 128.269531 168.199219 132.367188 169.242188 136.300781 C 170.277344 140.230469 172.789062 143.519531 176.304688 145.566406 C 179.824219 147.613281 183.929688 148.167969 187.863281 147.128906 C 191.800781 146.09375 195.09375 143.585938 197.144531 140.074219 C 201.375 132.824219 198.90625 123.488281 191.644531 119.265625 C 189.238281 117.867188 186.601562 117.199219 184 117.199219 Z M 183.945312 149.214844 C 181.011719 149.214844 178.117188 148.441406 175.511719 146.925781 C 171.632812 144.671875 168.863281 141.039062 167.714844 136.703125 C 166.570312 132.363281 167.183594 127.839844 169.445312 123.964844 C 174.109375 115.964844 184.425781 113.246094 192.4375 117.90625 C 196.320312 120.164062 199.089844 123.792969 200.234375 128.132812 C 201.378906 132.46875 200.765625 136.992188 198.507812 140.867188 C 196.246094 144.742188 192.609375 147.507812 188.265625 148.652344 C 186.835938 149.027344 185.386719 149.214844 183.945312 149.214844 Z M 185.625 163.917969 L 187.882812 172.464844 C 187.996094 172.898438 188.277344 173.265625 188.667969 173.492188 C 189.058594 173.71875 189.511719 173.78125 189.945312 173.664062 L 199.164062 171.238281 C 199.597656 171.125 199.964844 170.84375 200.195312 170.453125 C 200.421875 170.0625 200.480469 169.609375 200.367188 169.179688 L 198.105469 160.628906 L 198.664062 160.335938 C 201.792969 158.703125 204.605469 156.570312 207.023438 153.988281 L 207.453125 153.53125 L 215.09375 157.976562 C 215.484375 158.203125 215.941406 158.261719 216.378906 158.148438 C 216.816406 158.035156 217.183594 157.757812 217.410156 157.371094 L 222.210938 149.140625 C 222.675781 148.339844 222.402344 147.300781 221.59375 146.832031 L 213.949219 142.386719 L 214.136719 141.789062 C 215.191406 138.417969 215.664062 134.921875 215.542969 131.394531 L 215.523438 130.765625 L 224.082031 128.511719 C 224.515625 128.398438 224.882812 128.121094 225.109375 127.726562 C 225.335938 127.335938 225.398438 126.882812 225.285156 126.453125 L 222.851562 117.246094 C 222.613281 116.347656 221.6875 115.808594 220.785156 116.042969 L 212.230469 118.300781 L 211.9375 117.742188 C 210.296875 114.617188 208.15625 111.808594 205.578125 109.402344 L 205.121094 108.972656 L 209.574219 101.335938 C 210.042969 100.53125 209.769531 99.496094 208.960938 99.027344 L 200.726562 94.238281 C 199.921875 93.769531 198.882812 94.042969 198.414062 94.847656 L 193.960938 102.480469 L 193.359375 102.296875 C 189.988281 101.246094 186.484375 100.769531 182.953125 100.886719 L 182.324219 100.90625 L 180.070312 92.363281 C 179.832031 91.464844 178.902344 90.921875 178 91.160156 L 168.789062 93.59375 C 168.351562 93.707031 167.988281 93.984375 167.761719 94.375 C 167.53125 94.765625 167.46875 95.222656 167.582031 95.65625 L 169.839844 104.199219 L 169.285156 104.488281 C 166.148438 106.128906 163.339844 108.265625 160.929688 110.84375 L 160.5 111.300781 L 152.851562 106.851562 C 152.464844 106.628906 152.007812 106.566406 151.570312 106.683594 C 151.132812 106.796875 150.769531 107.074219 150.542969 107.460938 L 145.742188 115.6875 C 145.273438 116.492188 145.546875 117.527344 146.351562 117.996094 L 154 122.445312 L 153.8125 123.042969 C 152.761719 126.414062 152.285156 129.910156 152.402344 133.433594 L 152.425781 134.058594 L 143.867188 136.320312 C 143.4375 136.433594 143.074219 136.710938 142.84375 137.101562 C 142.613281 137.492188 142.550781 137.949219 142.667969 138.382812 L 145.097656 147.582031 C 145.210938 148.015625 145.488281 148.378906 145.882812 148.609375 C 146.273438 148.835938 146.730469 148.898438 147.164062 148.785156 L 155.71875 146.523438 L 156.011719 147.078125 C 157.660156 150.21875 159.800781 153.027344 162.371094 155.425781 L 162.832031 155.855469 L 158.378906 163.496094 C 158.152344 163.878906 158.09375 164.332031 158.207031 164.769531 C 158.324219 165.210938 158.601562 165.574219 158.988281 165.800781 L 167.226562 170.589844 C 168.03125 171.058594 169.066406 170.789062 169.539062 169.984375 L 173.992188 162.347656 L 174.59375 162.535156 C 177.949219 163.582031 181.453125 164.058594 185 163.9375 Z M 189.511719 175.296875 C 188.945312 175.296875 188.378906 175.148438 187.875 174.851562 C 187.117188 174.414062 186.578125 173.707031 186.359375 172.867188 L 184.421875 165.527344 C 181.125 165.574219 177.867188 165.136719 174.726562 164.21875 L 170.898438 170.777344 C 169.996094 172.332031 167.992188 172.855469 166.433594 171.953125 L 158.195312 167.160156 C 157.445312 166.722656 156.910156 166.019531 156.683594 165.175781 C 156.460938 164.328125 156.578125 163.449219 157.015625 162.703125 L 160.839844 156.144531 C 158.488281 153.863281 156.5 151.253906 154.914062 148.363281 L 147.566406 150.304688 C 146.722656 150.527344 145.84375 150.40625 145.089844 149.96875 C 144.332031 149.527344 143.792969 148.824219 143.570312 147.980469 L 141.140625 138.78125 C 140.917969 137.941406 141.039062 137.0625 141.484375 136.304688 C 141.921875 135.550781 142.628906 135.015625 143.46875 134.796875 L 150.8125 132.855469 C 150.765625 129.578125 151.207031 126.328125 152.125 123.175781 L 145.558594 119.355469 C 144.003906 118.453125 143.472656 116.453125 144.378906 114.898438 L 149.179688 106.667969 C 149.617188 105.917969 150.324219 105.382812 151.167969 105.160156 C 152.011719 104.9375 152.894531 105.054688 153.644531 105.492188 L 160.210938 109.3125 C 162.5 106.960938 165.113281 104.972656 167.996094 103.390625 L 166.058594 96.058594 C 165.835938 95.214844 165.957031 94.339844 166.398438 93.582031 C 166.839844 92.828125 167.542969 92.289062 168.386719 92.070312 L 177.597656 89.636719 C 179.339844 89.183594 181.132812 90.222656 181.59375 91.960938 L 183.53125 99.296875 C 186.820312 99.253906 190.074219 99.691406 193.226562 100.609375 L 197.050781 94.054688 C 197.957031 92.5 199.960938 91.972656 201.519531 92.875 L 209.757812 97.667969 C 211.3125 98.574219 211.84375 100.574219 210.9375 102.128906 L 207.113281 108.6875 C 209.464844 110.96875 211.453125 113.582031 213.039062 116.457031 L 220.386719 114.523438 C 222.125 114.066406 223.917969 115.105469 224.375 116.84375 L 226.808594 126.046875 C 227.03125 126.886719 226.910156 127.761719 226.472656 128.519531 C 226.035156 129.273438 225.328125 129.8125 224.484375 130.035156 L 217.136719 131.96875 C 217.183594 135.253906 216.746094 138.503906 215.824219 141.65625 L 222.386719 145.472656 C 223.945312 146.378906 224.476562 148.378906 223.570312 149.933594 L 218.773438 158.160156 C 218.335938 158.914062 217.628906 159.449219 216.78125 159.671875 C 215.933594 159.894531 215.054688 159.773438 214.300781 159.335938 L 207.738281 155.519531 C 205.445312 157.875 202.832031 159.863281 199.949219 161.433594 L 201.890625 168.777344 C 202.113281 169.609375 201.996094 170.484375 201.558594 171.242188 C 201.117188 172 200.410156 172.539062 199.566406 172.761719 L 190.347656 175.1875 C 190.070312 175.261719 189.789062 175.296875 189.511719 175.296875 " fill-opacity="1" fill-rule="nonzero"/></g><g clip-path="url(#0fb4c79b65)"><path fill="#f7f719" d="M 159.308594 173.1875 L 153.054688 173.1875 C 152.429688 170.464844 151.359375 167.921875 149.914062 165.628906 L 154.339844 161.210938 C 155.078125 160.476562 155.078125 159.277344 154.339844 158.542969 L 149.207031 153.417969 C 148.476562 152.6875 147.277344 152.6875 146.542969 153.417969 L 142.117188 157.839844 C 139.816406 156.398438 137.269531 155.328125 134.546875 154.707031 L 134.546875 148.457031 C 134.546875 147.421875 133.695312 146.574219 132.660156 146.574219 L 125.402344 146.574219 C 124.367188 146.574219 123.511719 147.421875 123.511719 148.457031 L 123.511719 154.707031 C 120.789062 155.328125 118.242188 156.398438 115.941406 157.839844 L 111.515625 153.417969 C 110.78125 152.6875 109.582031 152.6875 108.847656 153.417969 L 103.71875 158.542969 C 102.984375 159.277344 102.984375 160.476562 103.71875 161.210938 L 108.140625 165.628906 C 106.699219 167.921875 105.625 170.46875 105.003906 173.1875 L 98.746094 173.1875 C 97.707031 173.1875 96.859375 174.039062 96.859375 175.070312 L 96.859375 182.320312 C 96.859375 183.355469 97.707031 184.203125 98.746094 184.203125 L 105.003906 184.203125 C 105.628906 186.925781 106.699219 189.472656 108.140625 191.765625 L 103.71875 196.1875 C 102.984375 196.917969 102.984375 198.117188 103.71875 198.851562 L 108.847656 203.972656 C 109.582031 204.707031 110.78125 204.707031 111.515625 203.972656 L 115.941406 199.550781 C 118.242188 200.992188 120.789062 202.066406 123.511719 202.683594 L 123.511719 208.9375 C 123.511719 209.96875 124.367188 210.816406 125.402344 210.816406 L 132.660156 210.816406 C 133.695312 210.816406 134.546875 209.96875 134.546875 208.9375 L 134.546875 202.683594 C 137.269531 202.066406 139.816406 200.992188 142.117188 199.550781 L 146.542969 203.972656 C 147.277344 204.707031 148.476562 204.707031 149.207031 203.972656 L 154.339844 198.851562 C 155.078125 198.117188 155.078125 196.917969 154.339844 196.1875 L 149.910156 191.765625 C 151.359375 189.472656 152.429688 186.921875 153.054688 184.203125 L 159.308594 184.203125 C 160.347656 184.203125 161.199219 183.355469 161.199219 182.320312 L 161.199219 175.070312 C 161.199219 174.035156 160.347656 173.1875 159.308594 173.1875 Z M 129.027344 190.882812 C 122.289062 190.882812 116.828125 185.425781 116.828125 178.695312 C 116.828125 171.96875 122.289062 166.511719 129.027344 166.511719 C 135.769531 166.511719 141.230469 171.96875 141.230469 178.695312 C 141.230469 185.425781 135.769531 190.882812 129.027344 190.882812 " fill-opacity="1" fill-rule="nonzero"/></g><g clip-path="url(#658e23cd8d)"><path fill="#f7f719" d="M 129.027344 167.300781 C 122.734375 167.300781 117.617188 172.410156 117.617188 178.695312 C 117.617188 184.980469 122.734375 190.09375 129.027344 190.09375 C 135.324219 190.09375 140.441406 184.980469 140.441406 178.695312 C 140.441406 172.410156 135.324219 167.300781 129.027344 167.300781 Z M 129.027344 191.667969 C 121.867188 191.667969 116.039062 185.851562 116.039062 178.695312 C 116.039062 171.542969 121.867188 165.722656 129.027344 165.722656 C 136.191406 165.722656 142.019531 171.542969 142.019531 178.695312 C 142.019531 185.851562 136.191406 191.667969 129.027344 191.667969 Z M 115.828125 198.550781 L 116.359375 198.882812 C 118.628906 200.304688 121.09375 201.328125 123.6875 201.917969 L 124.300781 202.058594 L 124.300781 208.9375 C 124.300781 209.53125 124.804688 210.03125 125.402344 210.03125 L 132.660156 210.03125 C 133.265625 210.03125 133.757812 209.539062 133.757812 208.9375 L 133.757812 202.058594 L 134.371094 201.917969 C 136.960938 201.328125 139.425781 200.308594 141.695312 198.882812 L 142.230469 198.550781 L 147.097656 203.417969 C 147.304688 203.625 147.582031 203.734375 147.875 203.734375 C 148.171875 203.734375 148.445312 203.625 148.648438 203.417969 L 153.78125 198.292969 C 153.988281 198.085938 154.105469 197.808594 154.101562 197.515625 C 154.101562 197.222656 153.988281 196.949219 153.785156 196.746094 L 148.910156 191.878906 L 149.246094 191.34375 C 150.664062 189.09375 151.6875 186.632812 152.285156 184.03125 L 152.425781 183.417969 L 159.308594 183.417969 C 159.917969 183.417969 160.410156 182.925781 160.410156 182.320312 L 160.410156 175.070312 C 160.410156 174.46875 159.917969 173.976562 159.308594 173.976562 L 152.425781 173.976562 L 152.285156 173.363281 C 151.691406 170.765625 150.667969 168.304688 149.246094 166.046875 L 148.910156 165.515625 L 153.78125 160.652344 C 153.988281 160.445312 154.105469 160.171875 154.101562 159.875 C 154.101562 159.582031 153.988281 159.308594 153.785156 159.101562 L 148.652344 153.976562 C 148.222656 153.546875 147.527344 153.550781 147.097656 153.976562 L 142.230469 158.839844 L 141.695312 158.507812 C 139.433594 157.085938 136.96875 156.066406 134.371094 155.472656 L 133.757812 155.332031 L 133.757812 148.457031 C 133.757812 147.851562 133.265625 147.359375 132.660156 147.359375 L 125.402344 147.359375 C 124.792969 147.359375 124.300781 147.851562 124.300781 148.457031 L 124.300781 155.332031 L 123.6875 155.472656 C 121.089844 156.066406 118.621094 157.085938 116.359375 158.507812 L 115.828125 158.839844 L 110.960938 153.976562 C 110.53125 153.546875 109.832031 153.546875 109.402344 153.976562 L 104.273438 159.101562 C 104.070312 159.308594 103.957031 159.582031 103.957031 159.875 C 103.957031 160.171875 104.070312 160.445312 104.277344 160.652344 L 109.144531 165.515625 L 108.808594 166.046875 C 107.386719 168.304688 106.367188 170.769531 105.773438 173.363281 L 105.636719 173.976562 L 98.746094 173.976562 C 98.140625 173.976562 97.648438 174.46875 97.648438 175.070312 L 97.648438 182.320312 C 97.648438 182.925781 98.140625 183.417969 98.746094 183.417969 L 105.632812 183.417969 L 105.773438 184.03125 C 106.371094 186.628906 107.390625 189.089844 108.808594 191.347656 L 109.144531 191.878906 L 104.273438 196.742188 C 104.070312 196.949219 103.957031 197.222656 103.957031 197.515625 C 103.957031 197.8125 104.070312 198.085938 104.273438 198.292969 L 109.402344 203.417969 C 109.816406 203.828125 110.546875 203.828125 110.960938 203.417969 Z M 132.660156 211.605469 L 125.402344 211.605469 C 123.925781 211.605469 122.722656 210.410156 122.722656 208.9375 L 122.722656 203.304688 C 120.386719 202.710938 118.148438 201.785156 116.0625 200.546875 L 112.074219 204.53125 C 111.570312 205.035156 110.898438 205.3125 110.179688 205.3125 C 109.464844 205.3125 108.792969 205.035156 108.289062 204.53125 L 103.160156 199.40625 C 102.65625 198.902344 102.378906 198.230469 102.378906 197.515625 C 102.382812 196.800781 102.660156 196.128906 103.160156 195.628906 L 107.144531 191.648438 C 105.910156 189.570312 104.984375 187.335938 104.386719 184.992188 L 98.746094 184.992188 C 97.273438 184.992188 96.070312 183.792969 96.070312 182.320312 L 96.070312 175.070312 C 96.070312 173.601562 97.273438 172.402344 98.746094 172.402344 L 104.386719 172.402344 C 104.980469 170.0625 105.90625 167.828125 107.144531 165.746094 L 103.160156 161.765625 C 102.65625 161.261719 102.378906 160.589844 102.378906 159.875 C 102.378906 159.160156 102.65625 158.488281 103.160156 157.988281 L 108.289062 152.863281 C 109.332031 151.824219 111.03125 151.824219 112.074219 152.859375 L 116.0625 156.84375 C 118.144531 155.609375 120.378906 154.683594 122.722656 154.085938 L 122.722656 148.457031 C 122.722656 146.984375 123.925781 145.785156 125.402344 145.785156 L 132.660156 145.785156 C 134.132812 145.785156 135.335938 146.984375 135.335938 148.457031 L 135.335938 154.085938 C 137.675781 154.683594 139.914062 155.609375 141.996094 156.84375 L 145.984375 152.863281 C 147.027344 151.824219 148.726562 151.824219 149.765625 152.863281 L 154.898438 157.988281 C 155.402344 158.488281 155.679688 159.15625 155.679688 159.871094 C 155.679688 160.589844 155.402344 161.261719 154.898438 161.765625 L 150.910156 165.746094 C 152.148438 167.824219 153.078125 170.058594 153.671875 172.402344 L 159.308594 172.402344 C 160.785156 172.402344 161.988281 173.601562 161.988281 175.070312 L 161.988281 182.320312 C 161.988281 183.792969 160.785156 184.992188 159.308594 184.992188 L 153.671875 184.992188 C 153.074219 187.339844 152.148438 189.570312 150.910156 191.648438 L 154.898438 195.632812 C 155.398438 196.128906 155.679688 196.796875 155.679688 197.511719 C 155.683594 198.230469 155.402344 198.902344 154.898438 199.40625 L 149.765625 204.53125 C 149.265625 205.03125 148.59375 205.3125 147.878906 205.3125 C 147.875 205.3125 147.875 205.3125 147.875 205.3125 C 147.160156 205.3125 146.488281 205.035156 145.984375 204.53125 L 141.996094 200.546875 C 139.910156 201.785156 137.671875 202.710938 135.335938 203.304688 L 135.335938 208.9375 C 135.335938 210.410156 134.132812 211.605469 132.660156 211.605469 " fill-opacity="1" fill-rule="nonzero"/></g></svg>